<svg width="32" height="32" viewBox="0 0 32 32" fill="none" xmlns="http://www.w3.org/2000/svg">
<path d="M17.1519 0H14.8481V3.39188H17.1519V0Z" fill="#CC0000"/>
<path d="M3.07178 3.96875V20.9288H28.928V3.96875H3.07178ZM27.0718 19.0087H4.92803V5.75875H27.0718V19.0087Z" fill="#CC0000"/>
<path d="M9.66398 11.9043H6.91211V17.3443H9.66398V11.9043Z" fill="#CC0000"/>
<path d="M12.9921 9.91992H10.2402V17.3437H12.9921V9.91992Z" fill="#CC0000"/>
<path d="M16.3837 8H13.6318V17.3438H16.3837V8Z" fill="#CC0000"/>
<path d="M25.1521 15.0391H19.0083V15.6791H25.1521V15.0391Z" fill="#CC0000"/>
<path d="M22.5283 16.7031H19.0083V17.3431H22.5283V16.7031Z" fill="#CC0000"/>
<path d="M25.1521 13.4395H19.0083V14.0795H25.1521V13.4395Z" fill="#CC0000"/>
<path d="M25.1521 11.7754H19.0083V12.4154H25.1521V11.7754Z" fill="#CC0000"/>
<path d="M25.1521 8H22.5283V10.6237H25.1521V8Z" fill="#CC0000"/>
<path d="M21.632 8H19.0083V10.6237H21.632V8Z" fill="#CC0000"/>
<path d="M6.33643 31.9995H8.7683L11.7121 21.4395H9.28018L6.33643 31.9995Z" fill="#CC0000"/>
<path d="M20.2881 21.4395L23.2318 31.9995H25.6637L22.72 21.4395H20.2881Z" fill="#CC0000"/>
</svg>
